<svg width="27" height="27" viewBox="0 0 27 27" fill="none" xmlns="http://www.w3.org/2000/svg">
<path d="M13.5001 2.95564C16.9334 2.95564 17.3445 2.96675 18.7001 3.03342C19.9556 3.08898 20.6334 3.30009 21.089 3.47786C21.689 3.7112 22.1223 3.98898 22.5668 4.44453C23.0112 4.88898 23.3001 5.32231 23.5334 5.92231C23.7112 6.37786 23.9223 7.05564 23.9779 8.3112C24.0445 9.66675 24.0556 10.0779 24.0556 13.5112C24.0556 16.9445 24.0445 17.3556 23.9779 18.7112C23.9223 19.9668 23.7112 20.6445 23.5334 21.1001C23.3001 21.7001 23.0223 22.1334 22.5668 22.5779C22.1223 23.0223 21.689 23.3112 21.089 23.5445C20.6334 23.7223 19.9556 23.9334 18.7001 23.989C17.3445 24.0556 16.9334 24.0668 13.5001 24.0668C10.0668 24.0668 9.65564 24.0556 8.30009 23.989C7.04453 23.9334 6.36675 23.7223 5.9112 23.5445C5.3112 23.3112 4.87786 23.0334 4.43342 22.5779C3.98897 22.1334 3.70009 21.7001 3.46675 21.1001C3.28898 20.6445 3.07786 19.9668 3.02231 18.7112C2.95564 17.3556 2.94453 16.9445 2.94453 13.5112C2.94453 10.0779 2.95564 9.66675 3.02231 8.3112C3.07786 7.05564 3.28898 6.37786 3.46675 5.92231C3.70009 5.32231 3.97786 4.88898 4.43342 4.44453C4.87786 4.00009 5.3112 3.7112 5.9112 3.47786C6.36675 3.30009 7.04453 3.08898 8.30009 3.03342C9.65564 2.97786 10.0668 2.95564 13.5001 2.95564ZM13.5001 0.644531C10.0112 0.644531 9.56675 0.655642 8.20009 0.722309C6.83342 0.788975 5.90009 1.00009 5.07786 1.32231C4.23342 1.65564 3.5112 2.08898 2.80009 2.80009C2.08898 3.5112 1.64453 4.23342 1.32231 5.07786C1.00009 5.90009 0.788975 6.83342 0.722309 8.20009C0.655642 9.56675 0.644531 10.0112 0.644531 13.5001C0.644531 16.989 0.655642 17.4334 0.722309 18.8001C0.788975 20.1668 1.00009 21.1001 1.32231 21.9223C1.65564 22.7668 2.08898 23.489 2.80009 24.2001C3.5112 24.9112 4.23342 25.3556 5.07786 25.6779C5.90009 26.0001 6.83342 26.2112 8.20009 26.2779C9.56675 26.3445 10.0112 26.3556 13.5001 26.3556C16.989 26.3556 17.4334 26.3445 18.8001 26.2779C20.1668 26.2112 21.1001 26.0001 21.9223 25.6779C22.7668 25.3445 23.489 24.9112 24.2001 24.2001C24.9112 23.489 25.3556 22.7668 25.6779 21.9223C26.0001 21.1001 26.2112 20.1668 26.2779 18.8001C26.3445 17.4334 26.3556 16.989 26.3556 13.5001C26.3556 10.0112 26.3445 9.56675 26.2779 8.20009C26.2112 6.83342 26.0001 5.90009 25.6779 5.07786C25.3445 4.23342 24.9112 3.5112 24.2001 2.80009C23.489 2.08898 22.7668 1.64453 21.9223 1.32231C21.1001 1.00009 20.1668 0.788975 18.8001 0.722309C17.4334 0.655642 16.989 0.644531 13.5001 0.644531Z" fill="#006FB8"/>
<path d="M13.5004 6.90015C9.85595 6.90015 6.90039 9.8557 6.90039 13.5001C6.90039 17.1446 9.85595 20.1001 13.5004 20.1001C17.1448 20.1001 20.1004 17.1446 20.1004 13.5001C20.1004 9.8557 17.1448 6.90015 13.5004 6.90015ZM13.5004 17.789C11.1337 17.789 9.2115 15.8668 9.2115 13.5001C9.2115 11.1335 11.1337 9.21126 13.5004 9.21126C15.8671 9.21126 17.7893 11.1335 17.7893 13.5001C17.7893 15.8668 15.8671 17.789 13.5004 17.789Z" fill="#006FB8"/>
<path d="M20.3667 8.17776C21.2197 8.17776 21.9112 7.48628 21.9112 6.63331C21.9112 5.78034 21.2197 5.08887 20.3667 5.08887C19.5137 5.08887 18.8223 5.78034 18.8223 6.63331C18.8223 7.48628 19.5137 8.17776 20.3667 8.17776Z" fill="#006FB8"/>
</svg>
